<svg xmlns="http://www.w3.org/2000/svg" viewBox="0 0 32 32" width="32" height="32"><defs><linearGradient id="10961408146709653942" x1="-1.2510488951993533" y1="1.4894815005008148" x2="-1.2510488951993577" y2="31.586208920239674" gradientTransform="matrix(0.03876386,0,0,0.034457762,-0.028426449,-0.0513242)"><stop stop-color="#ff5f5f" /><stop offset="0.5" stop-color="#e1da5b" /><stop offset="1" stop-color="#5fff97" /></linearGradient><linearGradient id="8803427046904049910" x1="-20.205298880362115" y1="6.635044349335276" x2="-20.205298880362115" y2="20.635044349335274" gradientTransform="matrix(0.071428571,0,0,0.071428571,1.943235634,-0.473931739)"><stop stop-color="#ff5f5f" /><stop offset="0.5" stop-color="#e1da5b" /><stop offset="1" stop-color="#5fff97" /></linearGradient></defs><g>
<g>
	<g>
		<path d="M26.53054810410366,3.6392477447678724 C26.53054810410366,2.451964701733216 25.568065927959683,1.489481500500812 24.3807818598366,1.489481500500812 C24.3807818598366,1.489481500500812 8.803576055712146,5.789013989034935 8.803576055712146,5.789013989034935 C7.825876441873551,6.036650238263382 7.151778292464248,6.930680084536458 7.18265190570012,7.938780233301996 C7.18265190570012,7.938780233301996 7.182651905700118,19.86998329901955 7.182651905700118,19.86998329901955 C4.956055283850597,19.415481642558483 2.684248418301241,20.410545229257245 1.5085317042573432,22.355281487119726 C0.3328152464855516,24.300015694805346 0.5073355260457464,26.77404201056533 1.9444177548892236,28.53446736930404 C3.3814999837327004,30.29489272804274 5.770500339938619,30.96117970364046 7.911242730785285,30.198602071767482 C10.051985121631951,29.436022389717643 11.48172105426536,27.409420519920673 11.482184394234238,25.13691018743848 C11.482184394234238,25.13691018743848 11.482184394234238,9.564003604175673 11.482184394234238,9.564003604175673 C11.482184394234238,9.564003604175673 22.23101561556954,6.494137464767262 22.23101561556954,6.494137464767262 C22.23101561556954,6.494137464767262 22.231015615569536,13.313195843969645 22.231015615569536,13.313195843969645 C22.231015615569536,13.313195843969645 26.530548104103655,11.163429599702583 26.530548104103655,11.163429599702583 C26.530548104103655,11.163429599702583 26.53054810410366,3.6392477447678724 26.53054810410366,3.6392477447678724 Z" fill="url('#10961408146709653942')"/>
	</g>
	<g>
		<g transform="matrix(1,0,0,1,41.323651111,8.114955651)">
			<path d="M-20.205298880362115,6.635044349335276 C-27.205298880362115,6.635044349335276 -27.205298880362115,6.635044349335276 -27.205298880362115,13.635044349335276 C-27.205298880362115,20.635044349335274 -27.205298880362115,20.635044349335274 -20.205298880362115,20.635044349335274 C-13.205298880362115,20.635044349335274 -13.205298880362115,20.635044349335274 -13.205298880362115,13.635044349335276 C-13.205298880362115,6.635044349335276 -13.205298880362115,6.635044349335276 -20.205298880362115,6.635044349335276 C-20.205298880362115,6.635044349335276 -20.205298880362115,6.635044349335276 -20.205298880362115,6.635044349335276 ZM-16.455298880362115,7.885044349335276 C-15.350729445242486,7.885044349335276 -14.455298880362115,8.780474914215647 -14.455298880362115,9.885044349335276 C-14.455298880362115,10.989613784454905 -15.350729445242486,11.885044349335276 -16.455298880362115,11.885044349335276 C-17.559868315481744,11.885044349335276 -18.455298880362115,10.989613784454905 -18.455298880362115,9.885044349335276 C-18.455298880362115,8.780474914215647 -17.559868315481744,7.885044349335276 -16.455298880362115,7.885044349335276 C-16.455298880362115,7.885044349335276 -16.455298880362115,7.885044349335276 -16.455298880362115,7.885044349335276 ZM-20.205298880362115,11.635044349335276 C-19.100729445242486,11.635044349335276 -18.205298880362115,12.530474914215647 -18.205298880362115,13.635044349335276 C-18.205298880362115,14.739613784454905 -19.100729445242486,15.635044349335276 -20.205298880362115,15.635044349335276 C-21.309868315481744,15.635044349335276 -22.205298880362115,14.739613784454905 -22.205298880362115,13.635044349335276 C-22.205298880362115,12.530474914215647 -21.309868315481744,11.635044349335276 -20.205298880362115,11.635044349335276 C-20.205298880362115,11.635044349335276 -20.205298880362115,11.635044349335276 -20.205298880362115,11.635044349335276 ZM-23.955298880362115,15.385044349335276 C-22.850729445242486,15.385044349335276 -21.955298880362115,16.280474914215645 -21.955298880362115,17.385044349335274 C-21.955298880362115,18.489613784454903 -22.850729445242486,19.385044349335274 -23.955298880362115,19.385044349335274 C-25.059868315481744,19.385044349335274 -25.955298880362115,18.489613784454903 -25.955298880362115,17.385044349335274 C-25.955298880362115,16.280474914215645 -25.059868315481744,15.385044349335276 -23.955298880362115,15.385044349335276 C-23.955298880362115,15.385044349335276 -23.955298880362115,15.385044349335276 -23.955298880362115,15.385044349335276 Z" fill="url('#8803427046904049910')"/>
		</g>
	</g>
</g></g></svg>