<svg xmlns="http://www.w3.org/2000/svg" viewBox="0 0 32 32" width="32" height="32"><defs><linearGradient id="7353893238274834804" x1="-1.2510488951993533" y1="1.4894815005008148" x2="-1.2510488951993577" y2="31.586208920239674" gradientTransform="matrix(0.03876386,0,0,0.034457762,-0.028426449,-0.0513242)"><stop stop-color="#ff5f5f" /><stop offset="0.5" stop-color="#e1da5b" /><stop offset="1" stop-color="#5fff97" /></linearGradient><linearGradient id="5230302888280159822" x1="14.017076161896641" y1="22.24520911668718" x2="28.151152248609343" y2="22.24520911668718" gradientTransform="matrix(0.070750999,0,0,0.063053442,-0.991722138,-0.902637006)"><stop stop-color="#ff5f5f" /><stop offset="0.504918" stop-color="#e1da5b" /><stop offset="1" stop-color="#5fff97" /></linearGradient></defs><g>
<g>
	<g>
		<path d="M26.53054810410366,3.6392477447678724 C26.53054810410366,2.451964701733216 25.568065927959683,1.489481500500812 24.3807818598366,1.489481500500812 C24.3807818598366,1.489481500500812 8.803576055712146,5.789013989034935 8.803576055712146,5.789013989034935 C7.825876441873551,6.036650238263382 7.151778292464248,6.930680084536458 7.18265190570012,7.938780233301996 C7.18265190570012,7.938780233301996 7.182651905700118,19.86998329901955 7.182651905700118,19.86998329901955 C4.956055283850597,19.415481642558483 2.684248418301241,20.410545229257245 1.5085317042573432,22.355281487119726 C0.3328152464855516,24.300015694805346 0.5073355260457464,26.77404201056533 1.9444177548892236,28.53446736930404 C3.3814999837327004,30.29489272804274 5.770500339938619,30.96117970364046 7.911242730785285,30.198602071767482 C10.051985121631951,29.436022389717643 11.48172105426536,27.409420519920673 11.482184394234238,25.13691018743848 C11.482184394234238,25.13691018743848 11.482184394234238,9.564003604175673 11.482184394234238,9.564003604175673 C11.482184394234238,9.564003604175673 22.23101561556954,6.494137464767262 22.23101561556954,6.494137464767262 C22.23101561556954,6.494137464767262 22.231015615569536,13.313195843969645 22.231015615569536,13.313195843969645 C22.231015615569536,13.313195843969645 26.530548104103655,11.163429599702583 26.530548104103655,11.163429599702583 C26.530548104103655,11.163429599702583 26.53054810410366,3.6392477447678724 26.53054810410366,3.6392477447678724 Z" fill="url('#7353893238274834804')"/>
	</g>
	<g>
		<path d="M21.81016759880555,30.174990312284486 Q19.651534526531922,30.174990312284486 17.87989323859682,29.301596010015878 Q16.10825195066172,28.426426516075992 15.06266405627918,26.654785228140888 Q14.017076161896641,24.881368748534506 14.017076161896641,22.22213162496057 Q14.017076161896641,20.6546373792224 14.562060004978882,19.234484042200272 Q15.107043848061123,17.814330705178143 16.095825608962777,16.70128552728705 Q17.084607369864433,15.58824034939596 18.424877081679064,14.952721731078558 Q19.76514679349369,14.315427921089876 21.378796022685083,14.315427921089876 Q23.400739336270334,14.315427921089876 24.923853790226563,15.05390765634138 Q26.44696824418279,15.79238739159289 27.299060246396067,17.065199819898968 Q28.151152248609343,18.33801224820505 28.151152248609343,19.905506493943225 Q28.151152248609343,20.517947620534017 27.911501372986855,21.075357805315203 Q27.673625689035653,21.632767990096387 27.18367278776302,21.996682282708306 Q26.695495078161663,22.35882138364895 25.92328670115588,22.35882138364895 Q25.19723330760332,22.35882138364895 24.776512881510516,22.13159684972541 Q24.355792455417713,21.90437231580187 24.071761788013287,21.575961856615503 Q23.78773112060886,21.245776205757856 23.491274111505493,20.904939404872547 Q23.196592294073405,20.564102603987237 22.765220717952932,20.336878070063698 Q22.33384914183246,20.109653536140158 21.582943064882013,20.109653536140158 Q20.87996716305606,20.109653536140158 20.288828336520602,20.473567828752078 Q19.697689509985143,20.837482121363998 19.34442636740089,21.462349589653734 Q18.99293841648791,22.08721705794347 18.99293841648791,22.882502926675862 Q18.99293841648791,24.063005388075503 19.617805884777646,24.950601223714333 Q20.24267335306738,25.836421867681885 21.40187351441169,25.836421867681885 Q22.31077165010585,25.836421867681885 22.845104343160425,25.563042350305125 Q23.379437036215002,25.289662832928368 23.754002478854584,24.93817488201539 Q24.12856792149417,24.586686931102413 24.57059064764231,24.313307413725653 Q25.014388565461722,24.039927896348896 25.71913965895895,24.039927896348896 Q26.718572569888273,24.039927896348896 27.229827771216236,24.700299198064183 Q27.7410829725442,25.358895308108195 27.650548197309043,26.3121732355843 Q27.56001342207388,27.29030384645829 26.798456195095767,28.176124490425842 Q26.03689896811765,29.061945134393394 24.753435389783906,29.619355319174577 Q23.469971811450158,30.174990312284486 21.81016759880555,30.174990312284486 Q21.81016759880555,30.174990312284486 21.81016759880555,30.174990312284486 Z" fill="url('#5230302888280159822')"/>
	</g>
</g></g></svg>