<svg xmlns="http://www.w3.org/2000/svg" viewBox="0 0 32 32" width="32" height="32"><defs><linearGradient id="17576332915201074994" x1="-0.09349966201799986" y1="0.6782202537581649" x2="-0.09349966201800453" y2="31.616279036337495" gradientTransform="matrix(0.093033114,0,0,0.033520716,-0.068223369,-0.022734429)"><stop offset="0.006557" stop-color="#ff5f5f" /><stop offset="0.5" stop-color="#e1da5b" /><stop offset="1" stop-color="#5fff97" /></linearGradient><linearGradient id="17544439602051641593" x1="14.017076161896641" y1="22.24520911668718" x2="28.151152248609343" y2="22.24520911668718" gradientTransform="matrix(0.070750999,0,0,0.063053442,-0.991722138,-0.902637006)"><stop stop-color="#ff5f5f" /><stop offset="0.504918" stop-color="#e1da5b" /><stop offset="1" stop-color="#5fff97" /></linearGradient><linearGradient id="4332300921528409204" x1="13.5190195829527" y1="3.2851251095106666" x2="31.0396940203521" y2="3.2851251095106666" gradientTransform="matrix(0.057075428,0,0,0.301163889,-0.771603835,-0.489361053)"><stop stop-color="#ff5f5f" /><stop offset="0.544262" stop-color="#e1da5b" /><stop offset="1" stop-color="#5fff97" /></linearGradient><linearGradient id="3901017141389137629" x1="13.51901958295272" y1="7.297924863908744" x2="31.039694020352123" y2="7.297924863908744" gradientTransform="matrix(0.057075428,0,0,0.301163889,-0.771603835,-1.697871431)"><stop stop-color="#ff5f5f" /><stop offset="0.544262" stop-color="#e1da5b" /><stop offset="1" stop-color="#5fff97" /></linearGradient><linearGradient id="275329988073762088" x1="13.519019582952742" y1="11.310724618306839" x2="31.039694020352144" y2="11.310724618306839" gradientTransform="matrix(0.057075428,0,0,0.301163889,-0.771603835,-2.90638181)"><stop stop-color="#ff5f5f" /><stop offset="0.544262" stop-color="#e1da5b" /><stop offset="1" stop-color="#5fff97" /></linearGradient></defs><g>
<g>
	<g>
		<path d="M7.008272362163063,0.7347377099035342 C7.008272362163063,0.7347377099035342 7.182651905700118,19.86998329901955 7.182651905700118,19.86998329901955 C4.956055283850597,19.415481642558483 2.684248418301241,20.410545229257245 1.5085317042573432,22.355281487119726 C0.3328152464855516,24.300015694805346 0.5073355260457464,26.77404201056533 1.9444177548892236,28.53446736930404 C3.3814999837327004,30.29489272804274 5.770500339938619,30.96117970364046 7.911242730785285,30.198602071767482 C10.051985121631951,29.436022389717643 11.48172105426536,27.409420519920673 11.482184394234238,25.13691018743848 C11.482184394234238,25.13691018743848 10.964554660415793,0.6782202537581639 10.964554660415793,0.6782202537581639 C10.964554660415793,0.6782202537581639 8.986413511289427,0.706478981830849 7.008272362163063,0.7347377099035342 Z" fill="url('#17576332915201074994')"/>
	</g>
	<g>
		<path d="M21.81016759880555,30.174990312284486 Q19.651534526531922,30.174990312284486 17.87989323859682,29.301596010015878 Q16.10825195066172,28.426426516075992 15.06266405627918,26.654785228140888 Q14.017076161896641,24.881368748534506 14.017076161896641,22.22213162496057 Q14.017076161896641,20.6546373792224 14.562060004978882,19.234484042200272 Q15.107043848061123,17.814330705178143 16.095825608962777,16.70128552728705 Q17.084607369864433,15.58824034939596 18.424877081679064,14.952721731078558 Q19.76514679349369,14.315427921089876 21.378796022685083,14.315427921089876 Q23.400739336270334,14.315427921089876 24.923853790226563,15.05390765634138 Q26.44696824418279,15.79238739159289 27.299060246396067,17.065199819898968 Q28.151152248609343,18.33801224820505 28.151152248609343,19.905506493943225 Q28.151152248609343,20.517947620534017 27.911501372986855,21.075357805315203 Q27.673625689035653,21.632767990096387 27.18367278776302,21.996682282708306 Q26.695495078161663,22.35882138364895 25.92328670115588,22.35882138364895 Q25.19723330760332,22.35882138364895 24.776512881510516,22.13159684972541 Q24.355792455417713,21.90437231580187 24.071761788013287,21.575961856615503 Q23.78773112060886,21.245776205757856 23.491274111505493,20.904939404872547 Q23.196592294073405,20.564102603987237 22.765220717952932,20.336878070063698 Q22.33384914183246,20.109653536140158 21.582943064882013,20.109653536140158 Q20.87996716305606,20.109653536140158 20.288828336520602,20.473567828752078 Q19.697689509985143,20.837482121363998 19.34442636740089,21.462349589653734 Q18.99293841648791,22.08721705794347 18.99293841648791,22.882502926675862 Q18.99293841648791,24.063005388075503 19.617805884777646,24.950601223714333 Q20.24267335306738,25.836421867681885 21.40187351441169,25.836421867681885 Q22.31077165010585,25.836421867681885 22.845104343160425,25.563042350305125 Q23.379437036215002,25.289662832928368 23.754002478854584,24.93817488201539 Q24.12856792149417,24.586686931102413 24.57059064764231,24.313307413725653 Q25.014388565461722,24.039927896348896 25.71913965895895,24.039927896348896 Q26.718572569888273,24.039927896348896 27.229827771216236,24.700299198064183 Q27.7410829725442,25.358895308108195 27.650548197309043,26.3121732355843 Q27.56001342207388,27.29030384645829 26.798456195095767,28.176124490425842 Q26.03689896811765,29.061945134393394 24.753435389783906,29.619355319174577 Q23.469971811450158,30.174990312284486 21.81016759880555,30.174990312284486 Q21.81016759880555,30.174990312284486 21.81016759880555,30.174990312284486 Z" fill="url('#17544439602051641593')"/>
	</g>
	<g>
		<path d="M13.5190195829527,1.902873016811221 C13.5190195829527,1.7494914628275324 13.742256123162687,1.6248995022081836 14.017076161896654,1.6248995022081836 L30.54163744140815,1.6248995022081836 C30.816457480142116,1.6248995022081836 31.0396940203521,1.7494914628275324 31.0396940203521,1.902873016811221 L31.0396940203521,4.667377202210112 C31.0396940203521,4.820758756193801 30.816457480142116,4.94535071681315 30.54163744140815,4.94535071681315 L14.017076161896654,4.94535071681315 C13.742256123162687,4.94535071681315 13.5190195829527,4.820758756193801 13.5190195829527,4.667377202210112 L13.5190195829527,1.902873016811221 Z" fill="url('#4332300921528409204')"/>
	</g>
	<g>
		<path d="M13.51901958295272,5.915672771209298 C13.51901958295272,5.762291217225609 13.742256123162708,5.637699256606261 14.017076161896675,5.637699256606261 L30.54163744140817,5.637699256606261 C30.816457480142137,5.637699256606261 31.039694020352123,5.762291217225609 31.039694020352123,5.915672771209298 L31.039694020352123,8.68017695660819 C31.039694020352123,8.833558510591878 30.816457480142137,8.958150471211226 30.54163744140817,8.958150471211226 L14.017076161896675,8.958150471211226 C13.742256123162708,8.958150471211226 13.51901958295272,8.833558510591878 13.51901958295272,8.68017695660819 L13.51901958295272,5.915672771209298 Z" fill="url('#3901017141389137629')"/>
	</g>
	<g>
		<path d="M13.519019582952742,9.928472525607393 C13.519019582952742,9.775090971623705 13.74225612316273,9.650499011004356 14.017076161896696,9.650499011004356 L30.54163744140819,9.650499011004356 C30.81645748014216,9.650499011004356 31.039694020352144,9.775090971623705 31.039694020352144,9.928472525607393 L31.039694020352144,12.692976711006285 C31.039694020352144,12.846358264989973 30.81645748014216,12.970950225609322 30.54163744140819,12.970950225609322 L14.017076161896696,12.970950225609322 C13.74225612316273,12.970950225609322 13.519019582952742,12.846358264989973 13.519019582952742,12.692976711006285 L13.519019582952742,9.928472525607393 Z" fill="url('#275329988073762088')"/>
	</g>
</g></g></svg>